HIERARCHY
ROOT Hips
{
	OFFSET -0.001795 -0.223333 0.028219
	CHANNELS 6 Xposition Yposition Zposition Zrotation Yrotation Xrotation 
	JOINT LeftUpLeg
	{
		OFFSET 0.069520 -0.091406 -0.006815
		CHANNELS 3 Zrotation Yrotation Xrotation
		JOINT LeftLeg
		{
			OFFSET 0.034277 -0.375199 -0.004496
			CHANNELS 3 Zrotation Yrotation Xrotation
			JOINT LeftFoot
			{
				OFFSET -0.013596 -0.397961 -0.043693
				CHANNELS 3 Zrotation Yrotation Xrotation
				JOINT LeftToe
				{
					OFFSET 0.026358 -0.055791 0.119288
					CHANNELS 3 Zrotation Yrotation Xrotation
					End Site
					{
						OFFSET 0.000000 0.000000 0.000000
					}
				}
			}
		}
	}
	JOINT RightUpLeg
	{
		OFFSET -0.067670 -0.090522 -0.004320
		CHANNELS 3 Zrotation Yrotation Xrotation
		JOINT RightLeg
		{
			OFFSET -0.038290 -0.382569 -0.008850
			CHANNELS 3 Zrotation Yrotation Xrotation
			JOINT RightFoot
			{
				OFFSET 0.015774 -0.398415 -0.042312
				CHANNELS 3 Zrotation Yrotation Xrotation
				JOINT RightToe
				{
					OFFSET -0.025372 -0.048144 0.123348
					CHANNELS 3 Zrotation Yrotation Xrotation
					End Site
					{
						OFFSET 0.000000 0.000000 0.000000
					}
				}
			}
		}
	}
	JOINT Spine
	{
		OFFSET -0.002533 0.108963 -0.026696
		CHANNELS 3 Zrotation Yrotation Xrotation
		JOINT Spine1
		{
			OFFSET 0.005487 0.135180 0.001092
			CHANNELS 3 Zrotation Yrotation Xrotation
			JOINT Spine2
			{
				OFFSET 0.001457 0.052922 0.025425
				CHANNELS 3 Zrotation Yrotation Xrotation
				JOINT Neck
				{
					OFFSET -0.002778 0.213870 -0.042857
					CHANNELS 3 Zrotation Yrotation Xrotation
					JOINT Head
					{
						OFFSET 0.005152 0.064970 0.051349
						CHANNELS 3 Zrotation Yrotation Xrotation
						End Site
						{
							OFFSET 0.000000 0.000000 0.000000
						}
					}
				}
				JOINT LeftShoulder
				{
					OFFSET 0.078845 0.121749 -0.034090
					CHANNELS 3 Zrotation Yrotation Xrotation
					JOINT LeftArm
					{
						OFFSET 0.090977 0.030469 -0.008868
						CHANNELS 3 Zrotation Yrotation Xrotation
						JOINT LeftForeArm
						{
							OFFSET 0.259612 -0.012772 -0.027456
							CHANNELS 3 Zrotation Yrotation Xrotation
							JOINT LeftHand
							{
								OFFSET 0.249234 0.008986 -0.001171
								CHANNELS 3 Zrotation Yrotation Xrotation
								End Site
								{
									OFFSET 0.000000 0.000000 0.000000
								}
							}
						}
					}
				}
				JOINT RightShoulder
				{
					OFFSET -0.081759 0.118833 -0.038615
					CHANNELS 3 Zrotation Yrotation Xrotation
					JOINT RightArm
					{
						OFFSET -0.096012 0.032551 -0.009143
						CHANNELS 3 Zrotation Yrotation Xrotation
						JOINT RightForeArm
						{
							OFFSET -0.253742 -0.013329 -0.021401
							CHANNELS 3 Zrotation Yrotation Xrotation
							JOINT RightHand
							{
								OFFSET -0.255298 0.007772 -0.005559
								CHANNELS 3 Zrotation Yrotation Xrotation
								End Site
								{
									OFFSET 0.000000 0.000000 0.000000
								}
							}
						}
					}
				}
			}
		}
	}
}
MOTION
Frames: 10
Frame Time: 0.050000
0.000000 0.944548 0.000000 -0.806250 -1.093823 4.166515 5.477194 -0.214863 -2.344838 -0.047575 0.133291 -3.811830 1.487606 5.945423 8.428618 0.000000 0.000000 0.000000 -3.409532 0.418821 -4.215334 -2.031239 0.079309 -2.236260 1.228082 -1.559316 9.075074 0.000000 0.000000 0.000000 4.842554 0.167548 -3.307675 -1.724447 0.832289 -2.577455 -3.752240 3.746782 4.268260 7.327262 -3.559840 -12.124584 0.000000 0.000000 0.000000 -19.331539 -4.805204 -0.336888 -51.649348 -5.256568 -3.634861 -12.489262 -18.880243 2.620648 0.000000 0.000000 0.000000 17.984459 -3.046764 -2.411368 59.166141 3.996110 -3.723241 11.316412 20.757654 2.716777 0.000000 0.000000 0.000000 
0.000503 0.943556 0.001832 -0.894685 -1.841594 4.907810 5.176608 -0.204698 -2.067955 0.666822 0.113428 -4.677802 1.811606 6.392566 8.226426 0.000000 0.000000 0.000000 -3.453363 0.485239 -5.007710 -2.183018 0.128946 -1.539799 1.739945 -0.710157 9.341140 0.000000 0.000000 0.000000 5.616887 0.209189 -3.822279 -2.385808 1.120845 -2.477494 -4.381012 4.656783 3.467816 8.264740 -4.023903 -12.525021 0.000000 0.000000 0.000000 -20.273830 -4.875540 -0.614225 -50.508587 -5.279711 -3.381895 -12.634141 -18.568885 2.569823 0.000000 0.000000 0.000000 17.838056 -3.704631 -2.631088 60.278584 3.078679 -4.131542 11.787734 20.578733 2.790060 0.000000 0.000000 0.000000 
0.000788 0.943284 0.003067 -0.558280 -1.426716 4.902929 4.812071 -0.224484 -2.414135 0.808703 0.064532 -3.734917 1.623287 5.883103 7.474062 0.000000 0.000000 0.000000 -3.469926 0.479917 -4.970630 -2.799748 0.187989 -1.492414 1.197380 -1.799281 9.392511 0.000000 0.000000 0.000000 5.171235 0.196137 -3.743257 -1.899610 0.908899 -3.505866 -4.972328 4.614963 3.875928 8.029163 -3.989396 -11.847897 0.000000 0.000000 0.000000 -19.663268 -5.407003 -0.317464 -50.792667 -4.793765 -3.648504 -12.770927 -17.812048 2.480093 0.000000 0.000000 0.000000 18.778989 -2.645667 -2.046476 59.556362 2.714203 -4.365404 11.392736 21.006711 2.797752 0.000000 0.000000 0.000000 
0.000991 0.943406 0.004119 -0.510242 -1.172365 5.342731 5.051841 -0.248898 -2.760084 0.409158 0.107884 -4.055936 1.509248 5.889983 8.144539 0.000000 0.000000 0.000000 -3.467012 0.534131 -5.705138 -3.149985 0.234227 -1.279036 1.009956 -2.273904 9.690187 0.000000 0.000000 0.000000 5.259581 0.197488 -3.852895 -2.177696 1.030923 -3.226081 -4.833173 4.146623 2.694739 8.395128 -4.381315 -11.011600 0.000000 0.000000 0.000000 -19.819737 -5.019485 -0.502074 -50.689270 -4.779235 -3.538402 -12.589352 -17.123384 2.356288 0.000000 0.000000 0.000000 18.248925 -2.689058 -2.141116 59.537654 2.225532 -4.453592 12.514904 20.856505 2.942583 0.000000 0.000000 0.000000 
0.001114 0.943812 0.004943 -0.344775 -0.903254 5.275698 4.714934 -0.257492 -2.891367 0.793940 0.070996 -3.843150 1.371364 5.645166 8.063177 0.000000 0.000000 0.000000 -3.587295 0.514555 -5.474856 -3.326349 0.224631 -1.676125 0.653897 -3.002694 9.788749 0.000000 0.000000 0.000000 5.088446 0.197919 -3.874516 -2.069599 0.985524 -2.985133 -5.004081 4.026839 2.513830 8.043915 -4.185673 -10.752195 0.000000 0.000000 0.000000 -20.036019 -5.271065 -0.417042 -50.103302 -4.851085 -3.431104 -13.226681 -16.795235 2.399872 0.000000 0.000000 0.000000 18.285026 -2.608563 -2.087726 59.326431 2.133912 -4.472735 12.976754 21.204996 3.082627 0.000000 0.000000 0.000000 
0.001239 0.944275 0.005638 -0.288318 -0.813904 5.443185 4.703105 -0.266030 -3.008862 0.646321 0.084551 -3.900639 1.500350 5.909207 8.159691 0.000000 0.000000 0.000000 -3.523380 0.534676 -5.741714 -3.663591 0.251897 -1.710570 0.591230 -3.220002 10.051099 0.000000 0.000000 0.000000 5.072413 0.194339 -3.874856 -1.994037 0.952449 -3.029311 -5.107302 3.985228 2.275052 8.230664 -4.340918 -10.549344 0.000000 0.000000 0.000000 -20.279155 -5.425076 -0.382088 -49.657745 -4.610379 -3.454463 -13.199433 -16.717971 2.382718 0.000000 0.000000 0.000000 18.199691 -2.274490 -1.898010 59.278234 2.402560 -4.310753 13.059918 20.909949 3.044182 0.000000 0.000000 0.000000 
0.001374 0.944539 0.006180 -0.195444 -0.762343 5.440312 4.549703 -0.267431 -3.018549 0.821899 0.077227 -4.036572 1.485663 6.011858 8.588485 0.000000 0.000000 0.000000 -3.585796 0.523035 -5.587579 -3.669623 0.236215 -1.939970 0.631524 -3.171227 10.152922 0.000000 0.000000 0.000000 4.984055 0.183299 -3.756609 -2.075728 0.988132 -2.769087 -5.108862 3.702844 2.110135 8.238478 -4.288287 -10.900734 0.000000 0.000000 0.000000 -20.456177 -5.247870 -0.433982 -49.294104 -4.616462 -3.417398 -13.550812 -16.944370 2.472787 0.000000 0.000000 0.000000 18.098109 -1.913737 -1.757243 59.190723 2.517610 -4.228723 13.489546 21.385218 3.187444 0.000000 0.000000 0.000000 
0.001520 0.944710 0.006625 -0.210447 -0.746153 5.548249 4.398912 -0.277577 -3.179663 0.932764 0.065275 -3.944825 1.598894 6.140317 8.337738 0.000000 0.000000 0.000000 -3.557222 0.526121 -5.614401 -3.755105 0.243025 -1.945315 0.553384 -3.250140 9.956126 0.000000 0.000000 0.000000 4.986305 0.171191 -3.637954 -2.056749 0.979364 -2.754581 -5.233915 3.644867 1.993518 8.329645 -4.406916 -10.590848 0.000000 0.000000 0.000000 -20.619842 -5.300671 -0.423628 -48.862585 -4.586288 -3.376429 -13.868839 -17.171693 2.553035 0.000000 0.000000 0.000000 18.093968 -1.820378 -1.712859 59.040062 2.917806 -4.011011 13.935936 21.284567 3.247612 0.000000 0.000000 0.000000 
0.001617 0.944882 0.007001 -0.230190 -0.823302 5.672740 4.385439 -0.278159 -3.173844 0.921431 0.073055 -4.109675 1.673764 6.283336 8.403580 0.000000 0.000000 0.000000 -3.609411 0.530704 -5.664487 -3.611192 0.209112 -2.240715 0.497490 -3.442141 10.140400 0.000000 0.000000 0.000000 5.032360 0.165995 -3.597726 -2.070085 0.984228 -2.720045 -5.196271 3.552734 1.922045 8.370331 -4.454665 -10.521827 0.000000 0.000000 0.000000 -20.650103 -5.452991 -0.305220 -48.672717 -4.704222 -3.315489 -14.286909 -17.228300 2.627976 0.000000 0.000000 0.000000 17.991292 -1.590972 -1.617149 58.565002 3.200573 -3.837360 14.631898 21.543456 3.410853 0.000000 0.000000 0.000000 
0.001627 0.945096 0.007350 -0.232163 -1.017529 5.875451 4.314454 -0.285898 -3.299661 0.929062 0.077075 -4.221091 1.894142 6.690430 8.545657 0.000000 0.000000 0.000000 -3.630028 0.539494 -5.750465 -3.593307 0.186897 -2.511476 0.491464 -3.491295 10.173718 0.000000 0.000000 0.000000 5.139821 0.174971 -3.725216 -2.143860 1.014870 -2.669391 -5.314718 3.547571 1.922868 8.343733 -4.439416 -10.530787 0.000000 0.000000 0.000000 -20.567172 -5.541976 -0.223977 -48.304450 -4.833250 -3.240149 -14.893922 -17.437160 2.753188 0.000000 0.000000 0.000000 18.102751 -1.374065 -1.525276 58.085827 3.529455 -3.657948 15.109804 21.618075 3.507543 0.000000 0.000000 0.000000 
